<svg id="Layer_1" xmlns="http://www.w3.org/2000/svg" viewBox="0 0 332.6 236.9"><style>.st0{fill:#db3e67}</style><path class="st0" d="M259.3 236.1c4.7-1.4 5-2.6 1.5-6.4-3.2-3.7-4.4-4.1-7.3-3-4.4 1.7-3.8 9 .6 10.2.9.2 3.3-.2 5.2-.8zM174.8 213.6c1.2-.7 2-2.6 2.8-7.1.9-5.1.7-6.8-.9-9.2-5.5-8.2-14.9-6.3-15.7 3.1-.3 4 2 7.6 6.9 11 4.8 3.4 4.8 3.4 6.9 2.2zM192 210.4c.1-.5-.2-1.1-.7-1.2-.6-.2-1.1.2-1.2.7-.2.6.1 1.1.7 1.2.5.2 1.1-.1 1.2-.7zM289.1 229.3c1.6-2.8.7-4.7-2.4-5-5.3-.7-6.3 5.3-1.2 6.7 1.7.4 2.6 0 3.6-1.7zM236.1 215.6c1.4-.6 2.8-2 3.1-3.1.2-1.1 1.1-4.3 1.8-7.1 1-4.2 1-5.8-.3-8.2-2.2-3.8-5.8-4.8-9.8-2.5-2.7 1.4-3.2 2.3-3.6 5.4-.1 2-.6 5.4-.8 7.5-.6 6.3 4.3 10.4 9.6 8zM35.2 160.7c1.4-1.9.4-6.8-1.6-8.3-5.3-3.7-9.5-.1-6.2 5.2 1.9 3.1 6.5 4.9 7.8 3.1zM220.9 211.1c.1-.5-.4-1.1-1.2-1.4-.8-.2-1.6.1-1.7.6-.2.6.4 1.1 1.2 1.4s1.5 0 1.7-.6zM137 186.5c1.5-2 .9-4.4-1.2-5-2.2-.6-4.1 1.8-3.1 3.9.9 2.1 3.1 2.7 4.3 1.1zM40.9 149.1c7-4 2.8-14.8-6.8-17.4-7.5-2.1-12 2.1-9.4 8.9 2.4 6.8 11.1 11.4 16.2 8.5zM276.3 213.4c.3-1-.3-1.6-1.4-1.7-2.1-.2-2.4 1.6-.5 2.6.9.4 1.6 0 1.9-.9zM269.9 206.5c.2-.8 0-1.9-.4-2.3-1-1.1-4.4.2-4 1.6.5 1.7 4 2.2 4.4.7zM243.6 194.5c-.2-.6-.7-1.2-1.3-1.4-.5-.1-1 .2-1.1.7-.2.6.4 1.1 1.3 1.4.7.3 1.2 0 1.1-.7zM2.4 123c.1-.5-.4-1.1-1.3-1.4-.8-.2-1.3.2-1.1.7.1.7.7 1.2 1.3 1.4.5.2 1-.1 1.1-.7zM206.2 169.5c1.8-1 3.1-5.4 2-7.3-1.3-2.2-4.7-2.8-7.4-1.1-2.1 1.4-2.2 1.8-1.5 4.5.8 3.3 4.4 5.3 6.9 3.9zM275.7 188.1c.8-.1 1.6-.9 1.9-1.9.5-1.8-.8-3.3-3.1-3.2-.7.1-1.5.9-1.8 1.9-.5 1.8.8 3.4 3 3.2zM255.3 181.1c4.5.2 11.2-1.7 15-4.2 1.4-1 4-3.7 5.7-5.9 6.4-9 3.8-23.7-5.5-31.2-3.8-3.1-5.7-3.9-11.9-5.3-4.5-.9-8.6-1.1-10.7-.6-3.8 1-13.7 10.3-14.7 13.7-.5 1.6-1.3 2.1-3.7 2-2.9-.2-4.8 1.3-2.5 1.9.6.2.6 1-.1 1.9-.6.9-.5 2.3.1 3.3.6.9.7 2.3.2 3.1-.6.9 0 2.3 1.5 3.8 2.4 2.4 2.7 5 .5 5.6-.7.1-1.3.8-1.4 1.3-.2.6 1.1.4 2.8-.3 3.9-1.6 5.1-1.3 6.7 1.7 1.3 2.5 8.7 7.7 12.1 8.4 1.2.4 3.8.7 5.9.8zM218.1 160c6.8-3.1 7.6-11.2 1.7-16-3.9-3.2-7.1-3.2-12 .2-4.1 2.8-4.1 3-3 8.4.6 2.9 1.8 4.9 3.6 6.2 4.1 2.8 5.8 3.1 9.7 1.2zM87.3 119.3c0-.6-.5-1.2-1-1.3-.5-.1-1.2.1-1.5.6-.4.5.1 1.2 1 1.4s1.5-.1 1.5-.7zM293.3 164.7c1.2-1.2.5-3.1-1.2-3.5-.9-.2-1.5.3-1.6 1.3-.2 2.1 1.5 3.4 2.8 2.2zM7 83.8c.1-.5-.2-1.1-.8-1.3-.5-.1-.8.3-.7.9.1.7.5 1.2.8 1.3.2 0 .5-.3.7-.9zM159.5 124.5c3.7-2.1 1-6.9-3.1-5.3-1.7.7-2.1 1.2-1.6 2.9.7 2.6 2.7 3.5 4.7 2.4zM216.6 136.3c.4-1.4 0-2.1-1.3-2.2-.9 0-1.9.5-2.1 1.3s.3 1.8 1.2 2.2c1.2.5 1.8.1 2.2-1.3zM173.9 120.3c1.1-1.1-.2-3.5-1.7-3.1-1.8.5-2.2 3.1-.7 3.6.8.2 1.9 0 2.4-.5zM146.7 109.8c3.2-.4 6.9-3.8 6.9-6.8.1-3.2-3.8-6.4-6.9-5.7-3 .6-6.1 5.3-5.5 8 .6 2.8 2.9 4.7 5.5 4.5zM244 131.8c3-3.5.4-8.4-4.4-8.5-2.4-.1-2.9.4-3.8 3.6-1.1 4-.3 5.2 4 6.4 1.6.5 2.9 0 4.2-1.5zM307.7 150c.4-.4.4-1.1-.1-1.7-1-1-2.9-.6-3.3.7-.3 1.3 2.3 2 3.4 1zM303.9 144.1c1.6-1 2.1-4.8.6-5.9-2.1-1.6-5.4.6-4.7 3.1.7 2.2 2.8 3.6 4.1 2.8zM161.5 98.8c.2-.8-.1-1.6-.6-1.7-.6-.2-1.1.4-1.4 1.2s0 1.6.6 1.7c.6.2 1.2-.4 1.4-1.2zM258.9 115.6c5.5-2.3 4.7-11-1.4-12.6-4-1.1-6.6 0-8.4 3.5-1.1 2.3-1.1 3.5 0 5.5 1.7 2.9 6.8 4.7 9.8 3.6zM284.1 118.3c1.1-1.6.2-4.9-1.3-5.3-.8-.2-2 .2-2.9.8-1.3.9-1.4 1.5-.8 2.9.9 2.1 3.9 3.1 5 1.6zM128.8 72.6c1.4-1.2.4-2.5-1.2-1.6-.9.5-1 1.1-.5 1.6s1.3.5 1.7 0zM193.5 83.3c3.1-.4 5.5-3 5.6-6.2 0-2.1.4-2.5 1.9-2.1 2.5.7 6.9-2.1 8.7-5.6 3-5.9-2-14.6-8.6-14.7-3.2-.1-12.2 5.2-12.9 7.6-.5 1.6 1.6 6.2 3.4 7.3.8.5.3 1.3-1.8 2.9-6.6 4.7-4.3 11.7 3.7 10.8zM158.2 72c1.3-1.7.5-3.5-1.7-4.1-2-.6-2.9 1.3-1.7 3.5 1.1 1.9 2.2 2.1 3.4.6zM165.6 61.6c.2-.8-.1-1.6-.6-1.7-.6-.2-1.1.4-1.4 1.2s0 1.6.6 1.7c.5.1 1.2-.5 1.4-1.2zM52.7 30.1c0-1.4-1.3-2-1.7-.9-.1.4.2 1 .7 1.4.6.4 1.1.2 1-.5zM299.7 93.3c1.4-.5 3.4-2.2 4.5-3.8 4.1-6.3-.6-15.4-8.3-16-1.8-.1-4.5-.4-5.9-.6-3.4-.4-3.4-.5-2.5 1.5.4.9.3 2.5-.4 3.5-4.5 6.9 4.6 18.2 12.6 15.4zM54.9 26.5c.1-.5-.2-1.1-.7-1.2-.6-.2-1.1.2-1.2.7-.2.6.1 1.1.7 1.2.5.1 1.1-.2 1.2-.7zM240.5 76.8c.5-.2 1-1.1 1.2-1.7.6-2.1-6.8-3.2-7.8-1.1-.6 1.2-.1 1.7 2.5 2.5 1.8.4 3.7.6 4.1.3zM271.1 77.6c.1-.5-.4-1.1-1.2-1.4-.8-.2-1.6.1-1.7.6-.2.6.4 1.1 1.2 1.4s1.5 0 1.7-.6zM267.5 75.2c2.1-1.5 1.5-4.4-1.1-5.1-2.4-.7-4.2 1-4 3.6.3 2 3.2 2.8 5.1 1.5zM110.9 29.7c2-.2 5.6-4.5 6.5-7.7 1.1-3.9-1.2-9.9-5-13.7C108.6 4.5 101 2 96.7 3.2c-1.7.4-3.8.8-4.8.9-2.4.2-2.7 1.3-.7 4.2.8 1.2 1.9 4 2.5 6.1 1.3 5.8 3.6 9.8 6.9 12.1 2.9 1.9 7.8 3.6 10.3 3.2zM254.5 64.2c7-3.7 6.5-15.3-1-19-9-4.3-18.7 5.8-13.9 14.5 2.8 4.9 9.9 7.1 14.9 4.5zM176.8 43.4c.1-.5-.2-1.1-.8-1.3-.5-.1-.8.3-.7.9.1.7.5 1.2.8 1.3.2 0 .5-.3.7-.9zM176.1 40.1c1-1 0-4.1-1.4-4.5-1.3-.4-1.7 2.2-.6 3.9.8 1.1 1.4 1.2 2 .6zM179.2 33.2c1.1-1.5-.3-6.8-1.7-7.2-.6-.2-.5-2.1.2-4.4.8-2.9.6-5.6-.4-9.2-2-6.3-3.6-8.7-6.8-9.6-1.3-.4-3.2-1.3-4-2-1.3-1-1.6-.9-1.7.7-.2 1.4-.7 1.7-2.2 1.1l-1.9-.8.3 6.5c.3 7.5 3.9 14.9 8.3 17.2 1.5.8 2.7 1.9 2.6 2.4-.2.9 4.4 6.3 5.7 6.7.3-.2 1.1-.7 1.6-1.4zM84.8 7.6c0-.7-.6-1.7-1.2-2.1-.7-.5-1.2-.2-1.1.6 0 .7.6 1.7 1.2 2.1.7.5 1.2.3 1.1-.6zM80.9 6.1c1.6-2.1.8-4.4-1.7-5.1-2.8-.8-4.5 1.3-3.1 3.8 1.4 2.4 3.6 3 4.8 1.3zM89.2 7.5c.4-1.4-1.6-3.3-2.8-2.7-.9.5.4 3.5 1.5 3.8.5.1 1.1-.4 1.3-1.1zM264.7 26.5c1-.6.5-2.3-.7-2.7-.5-.1-1.1.4-1.3 1.2-.4 1.5.7 2.3 2 1.5zM244 20.3c2.5-1.5 2.7-4.1.6-6.6-1.7-1.9-2.5-2.1-5.2-1.8-2.9.3-8 3.7-7.3 4.8.1.2 2.6 1.3 5.4 2.5 3.5 1.4 5.5 1.8 6.5 1.1zM242.3 7.9c1.2-1.7-.9-4.9-3.3-4.7-.9.1-1.7 1.1-1.8 2.3-.3 2.7 3.4 4.5 5.1 2.4zM332.6 31.3c.1-.5-.4-1.1-1.2-1.4s-1.6.1-1.7.6c-.2.6.4 1.1 1.2 1.4.8.2 1.5 0 1.7-.6zM302.8 23.5c1.3-.7.6-3.4-.9-3.8-.8-.2-1.4.3-1.5 1.3-.2 1.9 1.2 3.2 2.4 2.5zM230.2 2.9c-.1-1.6-2.2-2.5-2.7-1.1-.2.6.4 1.3 1.3 1.7.9.6 1.5.4 1.4-.6zM303.9 6.6c.4-3-3.6-5-4.4-2.2-.5 1.7.9 3.6 3.2 4.2.5.1 1.1-.8 1.2-2z"/></svg>