<svg id="Layer_1" xmlns="http://www.w3.org/2000/svg" viewBox="0 0 249.6 254.7"><style>.st0{fill:#c1ef5e}</style><path class="st0" d="M65.9.8C54 2.8 46.3 15.1 48.8 28.2c.9 4.8 6.7 10.4 14.4 13.8l6.5 3 4.4-2.1c2.3-1.1 4.7-2 5.2-2 2.1 0 6.9-3.5 8.8-6.4 3.1-4.8 4.6-12.6 3.4-17.3-1.4-5-6.9-12.1-10.7-13.8C77.2 1.8 71.3-.1 70.5 0c-.3.1-2.4.4-4.6.8zM11.6 25.1c-.7.7-1.2 2.1-1.2 3.3 0 2.9 1.9 4.5 5.2 4.5 3.6 0 5.6-3.6 3.9-6.9-1.3-2.3-5.9-2.9-7.9-.9zM239.5 49.3c-3 3.2-2.5 7.5 1.1 9.5 2.2 1.3 3 1.3 5.1.2 5.1-2.7 5.2-9.2.2-11.1-3.6-1.4-3.9-1.3-6.4 1.4zM84.1 53.6c-4.5 5.1-9.7 20.1-6.6 19.1 1.5-.4 8.4-13.6 9.5-18.1.7-3.1-.5-3.5-2.9-1zM216.5 58.4c-2 2.3-3.9 3.5-5.6 3.5-2.6 0-6.5 3.1-6.5 5.3 0 .7.7 2.3 1.6 3.5 1.3 1.9 2.4 2.3 5.4 2.1 2.2-.2 4.5.3 5.5 1.1 1.2 1 3.7 1.4 6.9 1.3 2.8-.1 6.6-.2 8.5-.2 1.8-.1 4-.6 4.7-1.2 2.1-1.7 1.7-6.6-.6-7.9-1.1-.6-2.3-2.2-2.6-3.5-1-3.9-5.9-7.5-10.4-7.5-3.1 0-4.4.6-6.9 3.5zM154.1 77.1c-.9.7-1.9 2.6-2.3 4.3-1.5 8.2 11.3 10.6 13.1 2.4 1.3-5.7-6-10.2-10.8-6.7zM138.8 89.4c-4 6.1 4.4 12.7 9.6 7.5 4.1-4.1 1.3-10-4.8-10-2.2 0-3.6.7-4.8 2.5zM118.5 90.5c-2.6 3.3-2.6 3.5 0 6.8 2.8 3.6 7.7 3.3 9.8-.6 1.4-2.5 1.4-2.9-.5-5.5-2.9-3.9-6.6-4.1-9.3-.7zM71.6 103.6c-.7.3-1.8 1.6-2.3 3-1.3 3.6 1.2 7.3 4.9 7.3 3.5 0 5.2-1.6 5.2-5 0-4.3-3.9-6.9-7.8-5.3zM92.2 107.4c-1 2.2-.9 2.9 1 4.7 1.8 1.9 2.5 2 4.7 1 1.6-.8 2.5-2 2.5-3.5 0-5-6.2-6.6-8.2-2.2zM13.8 108.8c-2.2 1-5.6 3.6-7.4 5.8-3.7 4.4-7.5 14.9-6.1 16.7.5.6 1.2 2.7 1.6 4.7.8 4.5 7.9 12.5 12 13.5 1.7.4 3.5 1.1 4.1 1.5 1.3 1.1 13.2 0 14-1.2.3-.5 1.3-.9 2.3-.9 2.4 0 7.4-5.6 10-11.1 2-4.2 2.1-5.3 1.2-11-1.3-8.1-5-13.3-12.1-17.1-6.3-3.4-13.4-3.7-19.6-.9zM85.4 157.5c-1.4 3.6-1.2 6.4.3 6.4 1.4 0 4-6.7 3.1-8.2-1-1.5-2.5-.8-3.4 1.8zM43.7 209c-10.5 3-9.1 18 1.9 20.4 3.6.8 7.7-1.2 10.4-5.2 1.8-2.7 2-4 1.4-6.8-1-4.5-2.6-6.5-6.7-8.2-1.8-.7-3.4-1.3-3.5-1.2-.2 0-1.7.5-3.5 1zM81.4 253c0 1.4.5 1.9 1.7 1.7 2.6-.5 2.9-3.8.4-3.8-1.5 0-2.1.6-2.1 2.1z"/></svg>