<svg id="Layer_1" xmlns="http://www.w3.org/2000/svg" viewBox="0 0 293.2 306.5"><style>.st0{fill:#4252e2}</style><path class="st0" d="M291.6.1c-1 .2-1.8 1-1.8 1.8 0 2.2 2.9 1.8 3.3-.3.3-1.4-.1-1.8-1.5-1.5zM286.2 84.9c-.5 0-1 .5-1 1 0 .6.5 1 1 1 .6 0 1-.4 1-1 0-.5-.4-1-1-1zM277.8 48.9c-.8 0-1.5.7-1.5 1.5s.7 1.5 1.5 1.5 1.5-.7 1.5-1.5-.7-1.5-1.5-1.5zM249.4 183.5c-.8-.8-2.4.1-2.4 1.4 0 .5.7.9 1.5.9 1.5 0 2-1.2.9-2.3zM230.1 126.8c-1.3 0-2 .7-2 2s.7 2 2 2 2-.7 2-2-.7-2-2-2zM212.3 194.1c-1-.3-2.1-.8-2.5-1-.5-.2-.8 0-.8.5s1.1 1.4 2.5 2c1.6.7 2.5.8 2.5.1 0-.5-.8-1.2-1.7-1.6zM206 78.7c-.6 0-3 1.1-5.4 2.5-2.4 1.4-4.5 2.2-4.7 1.8-1.3-2.1-1.7-7.4-.8-9.1.7-1.3.7-2.2-.2-3.1-.9-.9-.9-1.6.1-3.1 1.4-2.3 1.6-4 .3-4-.5 0-1.4 1.4-2 3.1-.6 1.7-1.6 2.9-2.3 2.7-2-.7-3.8-5-3.6-8.3.3-2.4.8-3.1 3.2-3.5 1.6-.3 3.1-1.1 3.4-1.7.7-2.2-2.9-1.4-7.5 1.7-4.1 2.8-4.6 2.9-6.6 1.5-3.1-2.2-5.8-1.9-9.1 1-1.6 1.4-3.3 2.5-3.7 2.5-2.4 0-7 15.2-5 16.4.6.4 1.1 2.6 1.1 4.9s.7 5.5 1.5 7c1.3 2.5 1.3 2.8-.3 3.3-4.9 1.5-10.2 4.7-11.7 7-1.3 2-1.9 2.3-3.1 1.4-.7-.7-2.1-1-2.9-.6-2.1.8-1.9 3.7.4 4.3 2.8.7 3.5 8.1.9 10.6-4.6 4.5 1.4 11.4 7 7.9.7-.5 3.4-.4 6.1.1 5.9 1.3 9.8-.1 13.9-4.7 2.4-2.7 3.4-3.2 6.3-2.8 2.8.3 3.9-.2 6.7-3 2.7-2.9 3.1-3.9 2.6-6.5-.9-4.7-4.5-7.5-9.4-7.5-2.4.1-3.8-.3-3.4-.9.3-.6 1.8-.9 3.3-.7 1.5.1 4-.7 5.6-1.9 1.7-1.1 3.9-2.2 5-2.4 1.6-.3 1.9-1.1 1.7-3.5-.4-3.5 1.1-5 8.6-8.9 5.3-2.7 6.1-3.5 4-3.5zM189.5 199.7c-1.1-.9-1.9-1-2.6-.3-1.7 1.7-.6 4.8 1.6 4.8 2.5 0 3.1-2.8 1-4.5zM165.3 181.4c-1.2-1.3-2.3-.7-2.3 1.3 0 1.1.7 2 1.5 2 1.5 0 2.1-2.1.8-3.3z"/><path class="st0" d="M160.5 79.7c-.2-.9-2.3-2.8-4.6-4.4-3.4-2.2-4.9-2.6-7.9-2.2-5.3.9-10.1 4-10.3 6.8-.2 1.3-.8 3.7-1.6 5.5-1.1 2.8-1.1 3.7.4 6.7 3.1 6.7 10.4 8.9 17.5 5.2 5.3-2.7 8.3-11 6.5-17.6zM154.4 158.6c-6.5-2.4-14.3-4.9-15.8-4.9-2.1 0-1.9 1.7.3 2.9 1.7.9 16.3 5.1 17.7 5.1 1.7 0 .1-2.2-2.2-3.1zM151.8 172.8c-3-1-3.1-.9-1.4.4 1.1.8 2.6 1.5 3.3 1.5 2.2 0 1.4-.8-1.9-1.9zM145.9 127.8c-1.4-1.4-4.7-1.5-6.6-.3-2.3 1.4-1 5.3 2.1 6.4 4.5 1.5 7.7-2.9 4.5-6.1zM139 103.5c-4.1-1.7-6.3-.2-6.3 4.2 0 3.1.3 3.4 2.9 3.4 2.2 0 3.3-.7 4.7-3.2l1.8-3.1-3.1-1.3zM139.3 291.1c-1.3-2.2-2.5-4.9-2.5-5.9 0-4.2-4.3-10.8-8.6-13.6-5-3.2-11.9-4.6-14-2.9-.7.6-1.7.8-2.2.5-.5-.3-2.9.7-5.4 2.3-10.2 6.5-11.8 20.6-3.4 29.5 5.8 6 14.5 7.2 23 3.3 2.8-1.3 5.6-2.2 6.3-1.9 2.2.7 6.9-1.8 8.1-4.4 1.5-3.1 1.6-2.2-1.3-6.9zM131 85.8c-1.5.5-1.8 2.8-.3 2.9.6 0 1.2-.7 1.3-1.7.3-1-.1-1.5-1-1.2zM123.4 153.3c-.5-.3-1.5-.2-2.2.3-1.7 1-.6 4.3 1.2 3.8 1.5-.6 2.2-3.4 1-4.1zM119.9 133.8c-2.2-2.2-5.7-1.4-6.4 1.3-.8 3.1.3 7.5 1.8 7.5.6 0 2 .8 3.1 1.8 1.9 1.6 2 1.6 1.5-.5-.4-1.3-.2-2.6.3-2.9 1.3-.8 1.1-5.8-.3-7.2zM118.2 67.1c-.5-.3-1.6-2-2.5-3.8-1.9-4-7.6-8.6-12.9-10.4-3.5-1.3-4.8-1.2-10.5.3C84 55.4 80 58.4 75.8 65.5c-2.8 5-3.2 6.4-3 12.2.2 7.4 1.8 11.3 7 16.4 6.2 6.2 14.4 8 23.8 5.3 5.4-1.6 12.8-9 14.4-14.4 1.4-4.9 1.6-17 .2-17.9zM112.1 189.4c-1-4.7-2.2-6.2-7.7-8.9-4.5-2.1-4.6-2.1-8.2-.3-2 1.1-4.2 2.6-4.9 3.4-1 1.2-1.2.9-1.3-2.2 0-5.3-1.8-8.5-5.7-10.3-2.8-1.4-3.9-1.4-6.9-.3-3.8 1.3-7.4 6.1-7.4 9.7 0 8.1 9.6 12.9 15.8 8 2.6-2 2.7-2 3-.2 1.6 10.6 4.3 13.3 13 13.3 4.1 0 5.5-.5 8.1-2.9 3.2-3 3.3-3.3 2.2-9.3zM105.3 19.6c-.5 0-1 .5-1 1.1 0 .5.5.7 1 .4.6-.3 1-.8 1-1.1 0-.2-.4-.4-1-.4zM101.6 160.4c-1.9-.8-2.8-.8-4 .2-3.3 2.8-.8 8.8 3.1 7.3 4.1-1.5 4.6-5.8.9-7.5zM92.4 157.4c-.5-1.9-3.7-3.1-5.9-2.2-2 .7-2.9 5-1.4 6.8 1.8 2.1 5.7 1.9 7-.4.5-1.1.9-2.1.9-2.3-.1-.2-.3-1-.6-1.9zM90.1 126.5c-.5 0-1 .5-1 1 0 .6.5 1 1 1 .6 0 1-.4 1-1 0-.5-.4-1-1-1zM84.7 112.8c-7.5-6-18.5-1.7-18.5 7.2 0 5.1 1.1 7.4 4.5 9.5 4.5 2.8 8.4 2.5 12.4-.8 2.9-2.4 3.5-3.6 3.8-8.3.4-4.9.2-5.6-2.2-7.6zM83.9 247.3c-1.8-2.4-2.9-2.8-7-2.8-4.2 0-5.2.4-7.4 3.1-3 3.5-3.2 5.8-1.1 9.8 2.7 5.3 11 6.5 15 2.1 2.8-3.1 3.1-9 .5-12.2zM80.7 223.4c-2.1-3.1-2.8-3.4-7.7-3.7-5.1-.3-5.8 0-8.8 3.1l-3.3 3.4 1.7 4.4c.9 2.4 2.2 4.9 2.9 5.4.6.6 1.1 1.6.9 2.3-.1.7 0 .8.3.2s1.8-.8 3.8-.4c2.3.4 4.4 0 7.2-1.5 5.9-3 7-7.3 3-13.2zM80.5 211.5c-.8 0-1.5.7-1.5 1.5s.7 1.5 1.5 1.5 1.5-.7 1.5-1.5-.7-1.5-1.5-1.5zM70.2 5.3c-1.3-2.2-6.2-2.4-8.3-.2-3.4 3.4-.8 8.4 4.4 8.4 4.2 0 6.2-4.3 3.9-8.2zM68 186.5c-4-4-10.2-1.2-10.2 4.6 0 5.5 6.9 7.8 10.4 3.4 2.3-2.9 2.3-5.5-.2-8zM68.4 200.2c-.4-.4-1.6-.7-2.6-.7-1.3 0-1.8.7-1.8 2.6 0 2.1.4 2.5 2.2 2.2 2.3-.3 3.5-2.7 2.2-4.1zM56.3 242.6c-3.5-2.7-5.9-2.6-8.9.4-4.8 4.7-1.9 11.5 4.8 11.5 6.6 0 9.3-7.8 4.1-11.9zM42.7 234.7c-2.9-2.9-7.8-.1-7.8 4.4 0 3.2 3.8 5.1 6.9 3.5 2.3-1.3 2.9-5.9.9-7.9zM29.5 196.8c-.8-.4-2.2-.3-3.1 0-2.1.8-1.4 5 1 5.4 3.1.6 5-4.3 2.1-5.4zM30 243.5c-1-1.5-4.1-.8-4.1.9 0 1.5 2.9 2.5 4 1.4.5-.5.5-1.5.1-2.3zM24.3 211.6c-1 .2-1.8 1-1.8 1.8s.8 1.6 1.8 1.8c1.2.2 1.7-.3 1.7-1.8s-.5-2-1.7-1.8zM18.3 231.6c-1.8-2.7-5.5-2.9-7.7-.4-3.4 3.7-1.1 9.2 3.8 9.2 2.3 0 5.5-3.2 5.5-5.5 0-.6-.7-2.1-1.6-3.3zM14.2 196.9c-2.3-3.3-3.5-4.1-6.4-4.3-5-.4-7.8 2.4-7.8 7.7 0 3.1.6 4.4 2.6 6 1.5 1.2 3.4 2.1 4.2 2.1 2.3 0 10.2-4.9 10.2-6.3-.1-.7-1.3-3-2.8-5.2zM16.3 219.7c-.8-2.1-4.3-1.5-4.3.6 0 1.1.5 2.3 1.1 2.7 1.4.8 3.8-1.7 3.2-3.3z"/></svg>